<svg width="1221" height="625" viewBox="0 0 1221 625" fill="none" xmlns="http://www.w3.org/2000/svg">
<path d="M223 391.772V239.688H323.909V266.199H255.222V302.438H317.211V328.949H255.222V391.772H223Z" fill="black"/>
<path d="M344.987 391.772V277.709H376.689V391.772H344.987ZM360.912 263.006C356.199 263.006 352.156 261.446 348.783 258.328C345.459 255.159 343.797 251.372 343.797 246.966C343.797 242.609 345.459 238.872 348.783 235.753C352.156 232.584 356.199 231 360.912 231C365.625 231 369.644 232.584 372.968 235.753C376.341 238.872 378.028 242.609 378.028 246.966C378.028 251.372 376.341 255.159 372.968 258.328C369.644 261.446 365.625 263.006 360.912 263.006Z" fill="black"/>
<path d="M433.785 325.83V391.772H402.083V277.709H432.296V297.834H433.636C436.166 291.2 440.408 285.952 446.361 282.091C452.314 278.18 459.533 276.224 468.016 276.224C475.954 276.224 482.875 277.957 488.779 281.422C494.682 284.888 499.271 289.838 502.546 296.274C505.82 302.661 507.457 310.285 507.457 319.146V391.772H475.756V324.79C475.805 317.81 474.019 312.364 470.398 308.453C466.776 304.492 461.79 302.512 455.44 302.512C451.173 302.512 447.403 303.428 444.129 305.26C440.904 307.091 438.374 309.765 436.538 313.28C434.752 316.745 433.834 320.928 433.785 325.83Z" fill="black"/>
<path d="M574.562 393.629C565.88 393.629 558.017 391.401 550.972 386.945C543.977 382.44 538.421 375.831 534.303 367.118C530.235 358.355 528.201 347.612 528.201 334.889C528.201 321.82 530.309 310.953 534.526 302.289C538.743 293.576 544.349 287.066 551.344 282.759C558.389 278.402 566.104 276.224 574.488 276.224C580.888 276.224 586.221 277.313 590.487 279.492C594.804 281.62 598.276 284.294 600.906 287.512C603.585 290.68 605.619 293.799 607.008 296.868H607.975V239.688H639.602V391.772H608.347V373.504H607.008C605.52 376.673 603.411 379.816 600.682 382.935C598.003 386.005 594.506 388.554 590.19 390.584C585.923 392.614 580.714 393.629 574.562 393.629ZM584.608 368.455C589.718 368.455 594.035 367.068 597.557 364.296C601.129 361.474 603.858 357.538 605.743 352.489C607.678 347.439 608.645 341.523 608.645 334.741C608.645 327.958 607.702 322.067 605.817 317.067C603.932 312.067 601.203 308.205 597.631 305.482C594.059 302.76 589.718 301.398 584.608 301.398C579.399 301.398 575.009 302.809 571.437 305.631C567.865 308.453 565.161 312.364 563.325 317.364C561.49 322.364 560.572 328.156 560.572 334.741C560.572 341.375 561.49 347.241 563.325 352.34C565.211 357.39 567.914 361.35 571.437 364.222C575.009 367.044 579.399 368.455 584.608 368.455Z" fill="black"/>
<path d="M665.667 391.772V277.709H695.88V297.834H697.219C699.601 291.15 703.569 285.878 709.126 282.016C714.682 278.155 721.33 276.224 729.07 276.224C736.908 276.224 743.581 278.18 749.088 282.091C754.594 285.952 758.266 291.2 760.101 297.834H761.292C763.624 291.299 767.841 286.076 773.943 282.165C780.094 278.204 787.362 276.224 795.747 276.224C806.413 276.224 815.07 279.615 821.718 286.398C828.416 293.131 831.764 302.685 831.764 315.062V391.772H800.137V321.3C800.137 314.963 798.451 310.21 795.077 307.042C791.703 303.874 787.487 302.289 782.426 302.289C776.671 302.289 772.182 304.121 768.957 307.785C765.732 311.398 764.12 316.176 764.12 322.117V391.772H733.386V320.631C733.386 315.037 731.773 310.582 728.549 307.265C725.373 303.948 721.181 302.289 715.972 302.289C712.45 302.289 709.275 303.18 706.447 304.963C703.669 306.695 701.461 309.146 699.824 312.314C698.187 315.433 697.368 319.097 697.368 323.305V391.772H665.667Z" fill="black"/>
<path d="M908.451 394C896.891 394 886.895 391.549 878.461 386.648C870.076 381.698 863.602 374.816 859.038 366.004C854.474 357.142 852.192 346.87 852.192 335.186C852.192 323.404 854.474 313.106 859.038 304.294C863.602 295.433 870.076 288.551 878.461 283.65C886.895 278.699 896.891 276.224 908.451 276.224C920.01 276.224 929.982 278.699 938.366 283.65C946.8 288.551 953.299 295.433 957.863 304.294C962.427 313.106 964.709 323.404 964.709 335.186C964.709 346.87 962.427 357.142 957.863 366.004C953.299 374.816 946.8 381.698 938.366 386.648C929.982 391.549 920.01 394 908.451 394ZM908.599 369.494C913.858 369.494 918.249 368.009 921.771 365.039C925.293 362.019 927.948 357.91 929.734 352.712C931.569 347.513 932.487 341.597 932.487 334.964C932.487 328.33 931.569 322.414 929.734 317.215C927.948 312.017 925.293 307.908 921.771 304.888C918.249 301.869 913.858 300.359 908.599 300.359C903.291 300.359 898.826 301.869 895.204 304.888C891.632 307.908 888.929 312.017 887.093 317.215C885.307 322.414 884.414 328.33 884.414 334.964C884.414 341.597 885.307 347.513 887.093 352.712C888.929 357.91 891.632 362.019 895.204 365.039C898.826 368.009 903.291 369.494 908.599 369.494Z" fill="black"/>
<path d="M1036.97 394C1025.41 394 1015.41 391.549 1006.98 386.648C998.594 381.698 992.12 374.816 987.555 366.004C982.991 357.142 980.709 346.87 980.709 335.186C980.709 323.404 982.991 313.106 987.555 304.294C992.12 295.433 998.594 288.551 1006.98 283.65C1015.41 278.699 1025.41 276.224 1036.97 276.224C1048.53 276.224 1058.5 278.699 1066.88 283.65C1075.32 288.551 1081.82 295.433 1086.38 304.294C1090.94 313.106 1093.23 323.404 1093.23 335.186C1093.23 346.87 1090.94 357.142 1086.38 366.004C1081.82 374.816 1075.32 381.698 1066.88 386.648C1058.5 391.549 1048.53 394 1036.97 394ZM1037.12 369.494C1042.38 369.494 1046.77 368.009 1050.29 365.039C1053.81 362.019 1056.46 357.91 1058.25 352.712C1060.09 347.513 1061 341.597 1061 334.964C1061 328.33 1060.09 322.414 1058.25 317.215C1056.46 312.017 1053.81 307.908 1050.29 304.888C1046.77 301.869 1042.38 300.359 1037.12 300.359C1031.81 300.359 1027.34 301.869 1023.72 304.888C1020.15 307.908 1017.45 312.017 1015.61 317.215C1013.82 322.414 1012.93 328.33 1012.93 334.964C1012.93 341.597 1013.82 347.513 1015.61 352.712C1017.45 357.91 1020.15 362.019 1023.72 365.039C1027.34 368.009 1031.81 369.494 1037.12 369.494Z" fill="black"/>
<path d="M1155.96 393.629C1147.28 393.629 1139.41 391.401 1132.37 386.945C1125.37 382.44 1119.82 375.831 1115.7 367.118C1111.63 358.355 1109.6 347.612 1109.6 334.889C1109.6 321.82 1111.71 310.953 1115.92 302.289C1120.14 293.576 1125.75 287.066 1132.74 282.759C1139.79 278.402 1147.5 276.224 1155.89 276.224C1162.29 276.224 1167.62 277.313 1171.89 279.492C1176.2 281.62 1179.67 284.294 1182.3 287.512C1184.98 290.68 1187.02 293.799 1188.41 296.868H1189.37V239.688H1221V391.772H1189.74V373.504H1188.41C1186.92 376.673 1184.81 379.816 1182.08 382.935C1179.4 386.005 1175.9 388.554 1171.59 390.584C1167.32 392.614 1162.11 393.629 1155.96 393.629ZM1166.01 368.455C1171.12 368.455 1175.43 367.068 1178.95 364.296C1182.53 361.474 1185.26 357.538 1187.14 352.489C1189.08 347.439 1190.04 341.523 1190.04 334.741C1190.04 327.958 1189.1 322.067 1187.21 317.067C1185.33 312.067 1182.6 308.205 1179.03 305.482C1175.46 302.76 1171.12 301.398 1166.01 301.398C1160.8 301.398 1156.41 302.809 1152.83 305.631C1149.26 308.453 1146.56 312.364 1144.72 317.364C1142.89 322.364 1141.97 328.156 1141.97 334.741C1141.97 341.375 1142.89 347.241 1144.72 352.34C1146.61 357.39 1149.31 361.35 1152.83 364.222C1156.41 367.044 1160.8 368.455 1166.01 368.455Z" fill="black"/>
<path d="M451.12 20H173.88C142.792 20 120.699 20.0161 103.416 21.4513C86.373 22.8667 75.8076 25.558 67.4343 29.9076C51.3617 38.2567 38.2567 51.3617 29.9076 67.4343C25.558 75.8076 22.8667 86.373 21.4513 103.416C20.0161 120.699 20 142.792 20 173.88V451.12C20 482.208 20.0161 504.301 21.4513 521.584C22.8667 538.627 25.558 549.192 29.9076 557.566C38.2567 573.638 51.3617 586.743 67.4343 595.092C75.8076 599.442 86.373 602.133 103.416 603.549C120.699 604.984 142.792 605 173.88 605H451.12C482.208 605 504.301 604.984 521.584 603.549C538.627 602.133 549.192 599.442 557.566 595.092C573.638 586.743 586.743 573.638 595.092 557.566C599.442 549.192 602.133 538.627 603.549 521.584C604.039 515.674 604.364 509.202 604.579 502.001H624.587C623.724 531.776 621.062 550.959 612.841 566.785C602.594 586.511 586.511 602.594 566.785 612.841C543.378 625 512.625 625 451.12 625H173.88C112.375 625 81.6225 625 58.2148 612.841C38.4893 602.594 22.4059 586.511 12.1593 566.785C0 543.378 0 512.625 0 451.12V173.88C0 112.375 0 81.6225 12.1593 58.2148C22.4059 38.4893 38.4893 22.4059 58.2148 12.1593C81.6225 0 112.375 0 173.88 0H451.12C512.625 0 543.378 0 566.785 12.1593C586.511 22.4059 602.594 38.4893 612.841 58.2148C621.062 74.0409 623.724 93.2245 624.587 123H604.579C604.364 115.798 604.039 109.326 603.549 103.416C602.133 86.373 599.442 75.8076 595.092 67.4343C586.743 51.3617 573.638 38.2567 557.566 29.9076C549.192 25.558 538.627 22.8667 521.584 21.4513C504.301 20.0161 482.208 20 451.12 20Z" fill="#EF6B36"/>
<path d="M915.652 407C928.676 424.594 949.584 436 973.155 436C996.726 436 1017.63 424.594 1030.66 407L1044.66 421.602C1027.89 442.569 1002.09 456 973.155 456C944.22 456 918.422 442.569 901.655 421.602L915.652 407Z" fill="#EF6B36"/>
</svg>
